<svg xmlns="http://www.w3.org/2000/svg" xmlns:xlink="http://www.w3.org/1999/xlink" viewBox="0 0 389.33 313.95"><defs><style>.cls-1{isolation:isolate;}.cls-2{font-size:32.32px;fill:#fff;font-family:Gilroy-ExtraBold, Gilroy;font-weight:800;letter-spacing:0.01em;}.cls-3{letter-spacing:-0.02em;}.cls-4{fill:url(#linear-gradient);}.cls-5{font-size:22.91px;fill:#82bfff;font-family:Arcon-Rounded-Regular, Arcon;letter-spacing:0.01em;}.cls-6{fill:url(#radial-gradient);}.cls-7{fill:url(#radial-gradient-2);}.cls-8{opacity:0.37;mix-blend-mode:multiply;fill:url(#Blanco_Negro);}.cls-9{fill:url(#radial-gradient-3);}.cls-10{fill:url(#radial-gradient-4);}.cls-11{fill:url(#linear-gradient-19);}.cls-12{fill:url(#linear-gradient-20);}.cls-13{fill:url(#linear-gradient-21);}.cls-14{fill:url(#linear-gradient-22);}</style><linearGradient id="linear-gradient" x1="40.17" y1="218.69" x2="394.31" y2="318.31" gradientUnits="userSpaceOnUse"><stop offset="0" stop-color="#04d3f7"/><stop offset="0.58" stop-color="#756df3"/><stop offset="1" stop-color="#c129f1"/></linearGradient><radialGradient id="radial-gradient" cx="124.61" cy="66.78" r="154.42" gradientUnits="userSpaceOnUse"><stop offset="0" stop-color="#2a8bf3"/><stop offset="0.68" stop-color="#754ff6"/><stop offset="1" stop-color="#9932f7"/></radialGradient><radialGradient id="radial-gradient-2" cx="106.75" cy="48.87" r="157.41" gradientTransform="matrix(0.98, 0.18, -0.18, 0.98, 17.37, -30.68)" xlink:href="#linear-gradient"/><linearGradient id="Blanco_Negro" x1="104.34" y1="93.49" x2="128.77" y2="164.29" gradientUnits="userSpaceOnUse"><stop offset="0" stop-color="#fff"/><stop offset="1" stop-color="#222221"/></linearGradient><radialGradient id="radial-gradient-3" cx="232.93" cy="111.68" r="160.13" gradientTransform="matrix(0.98, 0.18, -0.18, 0.98, 17.37, -30.68)" gradientUnits="userSpaceOnUse"><stop offset="0" stop-color="#d395f7"/><stop offset="0.61" stop-color="#55b3fc"/><stop offset="1" stop-color="#09c5ff"/></radialGradient><radialGradient id="radial-gradient-4" cx="214.09" cy="126.36" r="122.64" gradientTransform="matrix(0.98, 0.18, -0.18, 0.98, 17.37, -30.68)" gradientUnits="userSpaceOnUse"><stop offset="0" stop-color="#ffd3f7"/><stop offset="0.32" stop-color="#b3d3f7"/><stop offset="1" stop-color="#04d3f7"/></radialGradient><linearGradient id="linear-gradient-19" x1="248.57" y1="88.7" x2="182.6" y2="167.26" gradientTransform="matrix(1, -0.05, 0.05, 1, -5.3, 11.03)" gradientUnits="userSpaceOnUse"><stop offset="0" stop-color="#fff"/><stop offset="0.32" stop-color="#b3f2fd"/><stop offset="1" stop-color="#04d3f7"/></linearGradient><linearGradient id="linear-gradient-20" x1="258.28" y1="78.93" x2="195.48" y2="151.01" gradientTransform="matrix(1, -0.05, 0.05, 1, -5.3, 11.03)" gradientUnits="userSpaceOnUse"><stop offset="0" stop-color="#fff"/><stop offset="0.35" stop-color="#b3e6ff"/><stop offset="1" stop-color="#1fb4ff"/></linearGradient><linearGradient id="linear-gradient-21" x1="230.6" y1="109.54" x2="204.87" y2="143.31" gradientUnits="userSpaceOnUse"><stop offset="0" stop-color="#04fff7"/><stop offset="0.63" stop-color="#7e75f3"/><stop offset="1" stop-color="#c129f1"/></linearGradient><linearGradient id="linear-gradient-22" x1="261.8" y1="72.88" x2="237.69" y2="98.66" gradientTransform="matrix(1, -0.05, 0.05, 1, -5.3, 11.03)" xlink:href="#linear-gradient-21"/></defs><title>ORBIT NEXT FRAMEWORK - FULL LOGO 2020</title><g class="cls-1"><g id="Layer_2" data-name="Layer 2"><g id="OBJECTS"><text class="cls-2" transform="translate(0 274.7)">ORBIT NEXT FRAME<tspan class="cls-3" x="291.17" y="0">W</tspan><tspan x="322.78" y="0">ORK</tspan></text><path class="cls-4" d="M1,263.39a11.67,11.67,0,0,1,11.76-11.77,11.77,11.77,0,1,1,0,23.53A11.66,11.66,0,0,1,1,263.39Zm18.36,0a6.44,6.44,0,0,0-6.6-6.73,6.73,6.73,0,0,0,0,13.45A6.44,6.44,0,0,0,19.33,263.39Z"/><path class="cls-4" d="M35.36,267.26H32.9v7.44H27.73V252.07h9.05a7.74,7.74,0,0,1,7.76,7.76,7.45,7.45,0,0,1-4.17,6.56l4.82,8.31H39.63Zm-2.46-4.52h3.88a2.93,2.93,0,0,0,0-5.82H32.9Z"/><path class="cls-4" d="M64.74,268.07c0,4-3.26,6.63-7.3,6.63H47.93V252.07h8.86c3.94,0,7.14,2.56,7.14,6.47A5.67,5.67,0,0,1,62,263,5.83,5.83,0,0,1,64.74,268.07ZM53.11,256.92v4h3.68a1.91,1.91,0,0,0,2-2,1.89,1.89,0,0,0-2-2Zm6.46,10.76a2,2,0,0,0-2.13-2.16H53.11v4.33h4.33A2,2,0,0,0,59.57,267.68Z"/><path class="cls-4" d="M72.82,252.07V274.7H67.65V252.07Z"/><path class="cls-4" d="M92.21,257.05H86.4V274.7H81.23V257.05H75.41v-5h16.8Z"/><path class="cls-4" d="M121,252.07V274.7H117.1l-8.72-12.28V274.7h-5.17V252.07h3.87l8.73,12.29V252.07Z"/><path class="cls-4" d="M139.41,269.72v5H125.19V252.07h14.06v5h-8.89v3.75h8.08v4.91h-8.08v4Z"/><path class="cls-4" d="M154.53,274.7l-3.81-6.53-3.81,6.53H141l6.75-11.6-6.43-11h5.88l3.49,6,3.49-6h5.88l-6.43,11,6.76,11.6Z"/><path class="cls-4" d="M178.19,257.05h-5.81V274.7h-5.17V257.05h-5.82v-5h16.8Z"/><path class="cls-4" d="M194.36,257.05v4.36h8.4v5h-8.4v8.31h-5.17V252.07h13.73v5Z"/><path class="cls-4" d="M213.94,267.26h-2.45v7.44h-5.17V252.07h9.05a7.74,7.74,0,0,1,7.75,7.76,7.45,7.45,0,0,1-4.17,6.56l4.82,8.31h-5.56Zm-2.45-4.52h3.88a2.93,2.93,0,0,0,0-5.82h-3.88Z"/><path class="cls-4" d="M239.77,271.14h-8.4l-1.14,3.56h-5.65l7.69-22.63h6.59l7.7,22.63H240.9Zm-1.55-4.84L235.57,258l-2.65,8.31Z"/><path class="cls-4" d="M271.44,274.7h-5.17V261.54l-5.85,9.6h-.58l-5.85-9.6V274.7h-5.17V252.07H254l6.14,10.06,6.14-10.06h5.17Z"/><path class="cls-4" d="M289.87,269.72v5H275.65V252.07h14.06v5h-8.89v3.75h8.08v4.91h-8.08v4Z"/><path class="cls-4" d="M291.49,252.07h5.43l3.91,15.84,4.36-15.84h4.2l4.37,15.84,3.91-15.84h5.43l-6.24,22.63H311l-3.69-13.35-3.68,13.35h-5.88Z"/><path class="cls-4" d="M323.75,263.39a11.76,11.76,0,1,1,11.76,11.76A11.66,11.66,0,0,1,323.75,263.39Zm18.35,0a6.59,6.59,0,1,0-6.59,6.72A6.44,6.44,0,0,0,342.1,263.39Z"/><path class="cls-4" d="M358.14,267.26h-2.46v7.44h-5.17V252.07h9.05a7.73,7.73,0,0,1,7.75,7.76,7.46,7.46,0,0,1-4.16,6.56L368,274.7H362.4Zm-2.46-4.52h3.88a2.93,2.93,0,0,0,0-5.82h-3.88Z"/><path class="cls-4" d="M383.12,274.7l-7.24-10.47V274.7h-5.17V252.07h5.17v9.83l6.92-9.83h5.88l-7.63,11L389,274.7Z"/><text class="cls-5" transform="translate(93.43 304.13)">Code like a Rocket !</text><path class="cls-6" d="M217.46,185.41a6,6,0,1,1-4.84-7A6,6,0,0,1,217.46,185.41ZM192.86,16.77c-50.74-.27-90,39.74-92.34,89.24-.57,12.14.59,23,5.22,32.91,1.5,1.75,2.93,3,4,4.31,13,14.74,32,14,38.08,12.46-24.53-.75-37.29-19.22-36.59-45.32,1.12-42,35.58-76,77.6-75.61A76.65,76.65,0,0,1,239.08,54a6.78,6.78,0,0,1-2.69,11.6c-7.24,1.92-16.4,1.59-18.46,1-6.87-2.07-8.69,4.54-3.91,6.37a20,20,0,0,0,8.06,1.16,1.87,1.87,0,0,1,.68,3.65,89.13,89.13,0,0,1-17,3.29c-9,1-8,8.28.07,8,19.73-.55,36.45-20,43.26-24.4,6.33,8.68,11.72,18.62,14,29.51-1.21,1.41-11.85,16.46-11.25,26.23.37,6,7.28,6.36,6.81-2.07a21,21,0,0,1,1.48-9.83,2.59,2.59,0,0,1,4.93,1q0,1.28,0,2.55c-.14,26.15-13.64,44.61-33.8,56.77a8.85,8.85,0,0,0-4.15,9l0,.18a8.88,8.88,0,0,0,13.72,5.9c25.34-16.78,43.18-45.46,43.35-77C284.52,57.43,243.6,17,192.86,16.77Z"/><path class="cls-7" d="M215.05,213.8a8.53,8.53,0,0,1-10.41-9.18l0-.18a8.53,8.53,0,0,1,6.51-7.42c40-9.62,72.86-47.22,73.09-90,.26-49.55-40.66-89.94-91.4-90.21S103.11,56.52,100.52,106c-1.88,35.91,19.15,46.16,28.47,53.51-10.69-2.36-31.24-1.66-39.23-50.68-.05-1.42-.08-2.84-.07-4.27a105.13,105.13,0,0,1,210.25,1.11C299.67,156.34,261.39,202.76,215.05,213.8Zm-23.54-12.65a8.87,8.87,0,1,0,7.11,10.34A8.87,8.87,0,0,0,191.51,201.15Z"/><path class="cls-8" d="M147.86,155.69c-11.15-.34-19.86-4.35-26-11.07h0C99.8,133.94,90.43,110.24,90.51,92a106.76,106.76,0,0,0-.82,12.59c0,1.43,0,2.85.07,4.27,8,49,28.54,48.32,39.23,50.68C134.35,157,142.36,157.09,147.86,155.69Z"/><path class="cls-9" d="M203.59,121.77c-16.53,21.58-38.53,37.76-67.1,33.16-28-4.49-45.73-31.7-46-63-7.81,54.52,26.36,82.71,61.5,84.89,30.82,1.91,56.67-15.83,71.8-37.37C218.87,130.66,208.39,124.75,203.59,121.77Z"/><path class="cls-10" d="M214.85,129.38a96.85,96.85,0,0,0-11.26-7.61c-16.53,21.58-38.53,37.76-67.1,33.16-28-4.49-45.73-31.7-46-63,0,.06,0,.11,0,.16-4.51,49.83,26.5,73,57.37,74.61C176,168.2,200.92,152.17,214.85,129.38Z"/><path class="cls-11" d="M226.51,141.12a53.34,53.34,0,0,1-25.14-19.18,5.81,5.81,0,0,1,.21-7.14c7.9-9.61,30.35-36.71,37.27-42.86C247.3,64.42,265,55.61,269,58.59s.59,22.15-4.4,32.85c-3.18,6.81-24.07,37.18-31.34,47.53A5.81,5.81,0,0,1,226.51,141.12Z"/><path class="cls-12" d="M269,58.62h0l0,0a2.16,2.16,0,0,0-.3-.18h0c-4.44-2.39-21.54,6.18-29.8,13.53-6.92,6.15-29.37,33.25-37.27,42.86a5.81,5.81,0,0,0-.21,7.14,59.65,59.65,0,0,0,7.11,8.06h0c.61.58,1.24,1.14,1.87,1.68l.43.36c.54.46,1.09.91,1.65,1.34l.32.24c.66.51,1.33,1,2,1.46l.31.2c.57.39,1.15.77,1.73,1.13l.52.32c.61.37,1.21.72,1.83,1.06l.26.14c.69.38,1.4.74,2.11,1.08l.53.25c.55.26,1.11.51,1.67.74l.61.26c.72.3,1.45.59,2.19.86l.18,0h0a5.8,5.8,0,0,0,6.52-2.2c7.27-10.35,28.16-40.72,31.34-47.53C269.53,80.77,272.85,61.69,269,58.62Zm-7.57,31.46c-3.63,6.57-26.36,35.59-34.5,45.29-3,3.58-7.79,1.53-13.79-3.32-3.79-3.07-9.39-8.91-6.05-13.35,7.48-10,28.42-38.23,35-44.74,6.84-6.74,20.27-14.74,26.68-15.31C271,63.76,266.68,80.55,261.41,90.08Z"/><path class="cls-13" d="M206,109.44l-14,13.28a1.33,1.33,0,0,1-2.29-1.24l3-10.11a5,5,0,0,1,1.34-2.21l10.84-10.42a3,3,0,0,1,3.84-.22l3.92,3Zm31.24,23.72-9,17.05a1.34,1.34,0,0,0,1.82,1.87L239,146.5a5.07,5.07,0,0,0,1.76-1.89l7.12-13.24a3,3,0,0,0-.82-3.76l-3.91-3Zm-26.74,5,6.66-6.29L228,117.53a1.69,1.69,0,0,0-.33-2.36l-1.79-1.36a1.67,1.67,0,0,0-2.35.32l-10.92,14.39-4.22,8A1.33,1.33,0,0,0,210.5,138.12Z"/><path class="cls-14" d="M250.12,73.25a8.77,8.77,0,1,0,9.18,8.33A8.76,8.76,0,0,0,250.12,73.25Zm.74,15.32a6.57,6.57,0,1,1,6.25-6.88A6.59,6.59,0,0,1,250.86,88.57Z"/></g></g></g></svg>